<?xml version="1.0" encoding="utf-8"?>
<!-- Generator: Adobe Illustrator 21.0.0, SVG Export Plug-In . SVG Version: 6.00 Build 0)  -->
<svg version="1.1" id="Layer_1" xmlns="http://www.w3.org/2000/svg" xmlns:xlink="http://www.w3.org/1999/xlink" x="0px" y="0px"
   viewBox="0 0 420 271.2" style="enable-background:new 0 0 1179.5 271.2;" xml:space="preserve">
<style type="text/css">
  .st0{fill:#FFFFFF;}
  .st1{fill:#FBAE40;}
  .st2{fill:#F58220;}
</style>
<g>
  <g>
    <path id="flare" class="st0" d="M370.9,150.2l-40.7-24.7c-0.6-0.1-4.4,0.3-6.4-0.7c-1.4-0.7-2.5-1.9-3.2-4c-3.2,0-175.5,0-175.5,0
      v91.8h225.8V150.2z"/>
    <path id="right-cloud" class="st1" d="M328.6,125.6c-0.8,0-1.5,0.6-1.8,1.4l-4.8,16.7c-2.1,7.2-1.3,13.8,2.2,18.7
      c3.2,4.5,8.6,7.1,15.1,7.4l26.2,1.6c0.8,0,1.5,0.4,1.9,1c0.4,0.6,0.5,1.5,0.3,2.2c-0.4,1.2-1.6,2.1-2.9,2.2l-27.3,1.6
      c-14.8,0.7-30.7,12.6-36.3,27.2l-2,5.1c-0.4,1,0.3,2,1.4,2h93.8c1.1,0,2.1-0.7,2.4-1.8c1.6-5.8,2.5-11.9,2.5-18.2
      c0-37-30.2-67.2-67.3-67.2C330.9,125.5,329.7,125.5,328.6,125.6z"/>
    <path id="left-cloud" class="st2" d="M292.8,204.4c2.1-7.2,1.3-13.8-2.2-18.7c-3.2-4.5-8.6-7.1-15.1-7.4l-123.1-1.6
      c-0.8,0-1.5-0.4-1.9-1s-0.5-1.4-0.3-2.2c0.4-1.2,1.6-2.1,2.9-2.2l124.2-1.6c14.7-0.7,30.7-12.6,36.3-27.2l7.1-18.5
      c0.3-0.8,0.4-1.6,0.2-2.4c-8-36.2-40.3-63.2-78.9-63.2c-35.6,0-65.8,23-76.6,54.9c-7-5.2-15.9-8-25.5-7.1
      c-17.1,1.7-30.8,15.4-32.5,32.5c-0.4,4.4-0.1,8.7,0.9,12.7c-27.9,0.8-50.2,23.6-50.2,51.7c0,2.5,0.2,5,0.5,7.5
      c0.2,1.2,1.2,2.1,2.4,2.1h227.2c1.3,0,2.5-0.9,2.9-2.2L292.8,204.4z"/>
  </g>
</g>
</svg>
