<svg id="Layer_1" data-name="Layer 1" xmlns="http://www.w3.org/2000/svg" xmlns:xlink="http://www.w3.org/1999/xlink" viewBox="0 0 404.2 150.03"><defs><style>.cls-1,.cls-2{fill:none;}.cls-1{clip-rule:evenodd;}.cls-3{fill:#fff;}.cls-4{clip-path:url(#clip-path);}.cls-5{clip-path:url(#clip-path-2);}.cls-6{fill:#f28021;}.cls-7{clip-path:url(#clip-path-3);}.cls-8{fill:#faae41;}.cls-9{clip-path:url(#clip-path-5);}.cls-10{fill:#414142;}.cls-11{clip-path:url(#clip-path-7);}.cls-12{clip-path:url(#clip-path-9);}.cls-13{clip-path:url(#clip-path-11);}.cls-14{clip-path:url(#clip-path-13);}.cls-15{clip-path:url(#clip-path-15);}.cls-16{clip-path:url(#clip-path-17);}.cls-17{clip-path:url(#clip-path-19);}.cls-18{clip-path:url(#clip-path-21);}.cls-19{clip-path:url(#clip-path-23);}.cls-20{isolation:isolate;}.cls-21{clip-path:url(#clip-path-25);}.cls-22{clip-path:url(#clip-path-26);}</style><clipPath id="clip-path" transform="translate(9.58 9.58)"><path class="cls-1" d="M326.67,80.19c1.14-3.94.72-7.58-1.2-10.26a10.39,10.39,0,0,0-8.25-4.09L249.8,65a1.34,1.34,0,0,1-1.06-.57,1.38,1.38,0,0,1-.14-1.22,1.8,1.8,0,0,1,1.57-1.2l68.05-.86c8.07-.37,16.81-6.93,19.87-14.93L342,36a2.33,2.33,0,0,0,.11-1.34,44.3,44.3,0,0,0-85.22-4.59,19.93,19.93,0,0,0-31.79,14,20.14,20.14,0,0,0,.52,7,28.38,28.38,0,0,0-27.22,32.49,1.32,1.32,0,0,0,1.3,1.14l124.48,0a1.64,1.64,0,0,0,1.57-1.18Z"/></clipPath><clipPath id="clip-path-2" transform="translate(9.58 9.58)"><rect class="cls-2" x="-109.25" y="-72.84" width="5458.87" height="642.11"/></clipPath><clipPath id="clip-path-3" transform="translate(9.58 9.58)"><path class="cls-1" d="M348.18,36.78c-.62,0-1.25,0-1.87,0a1.07,1.07,0,0,0-1,.78l-2.65,9.17c-1.14,3.94-.72,7.58,1.2,10.26a10.38,10.38,0,0,0,8.25,4.09l14.37.87a1.3,1.3,0,0,1,1,.56,1.37,1.37,0,0,1,.15,1.23,1.8,1.8,0,0,1-1.56,1.2l-14.93.86c-8.11.37-16.85,6.93-19.91,14.93L330.2,83.6a.8.8,0,0,0,.75,1.09h51.39a1.37,1.37,0,0,0,1.32-1,36.94,36.94,0,0,0-35.48-46.91"/></clipPath><clipPath id="clip-path-5" transform="translate(9.58 9.58)"><polygon class="cls-1" points="42.25 99.49 50.76 99.49 50.76 122.78 65.63 122.78 65.63 130.24 42.25 130.24 42.25 99.49"/></clipPath><clipPath id="clip-path-7" transform="translate(9.58 9.58)"><path class="cls-1" d="M74.44,115v-.09c0-8.83,7.11-16,16.58-16s16.49,7.08,16.49,15.91v.09c0,8.83-7.11,16-16.58,16s-16.5-7.07-16.5-15.9m24.39,0v-.09c0-4.44-3.2-8.31-7.89-8.31s-7.77,3.78-7.77,8.22v.09c0,4.44,3.2,8.3,7.85,8.3s7.81-3.78,7.81-8.22"/></clipPath><clipPath id="clip-path-9" transform="translate(9.58 9.58)"><path class="cls-1" d="M117.94,116.75V99.48h8.64v17.09c0,4.44,2.24,6.55,5.66,6.55s5.66-2,5.66-6.33V99.48h8.64v17.05c0,9.93-5.66,14.28-14.39,14.28s-14.22-4.44-14.22-14.06"/></clipPath><clipPath id="clip-path-11" transform="translate(9.58 9.58)"><path class="cls-1" d="M159.56,99.49h11.85c11,0,17.33,6.33,17.33,15.2v.09c0,8.87-6.45,15.46-17.5,15.46H159.56Zm12,23.2c5.09,0,8.47-2.81,8.47-7.78v-.09c0-4.92-3.38-7.78-8.47-7.78h-3.47v15.64Z"/></clipPath><clipPath id="clip-path-13" transform="translate(9.58 9.58)"><polygon class="cls-1" points="201.11 99.49 225.67 99.49 225.67 106.96 209.62 106.96 209.62 112.19 224.14 112.19 224.14 119.26 209.62 119.26 209.62 130.24 201.11 130.24 201.11 99.49"/></clipPath><clipPath id="clip-path-15" transform="translate(9.58 9.58)"><polygon class="cls-1" points="237.51 99.49 246.02 99.49 246.02 122.78 260.9 122.78 260.9 130.24 237.51 130.24 237.51 99.49"/></clipPath><clipPath id="clip-path-17" transform="translate(9.58 9.58)"><path class="cls-1" d="M283.14,99.27h8.2l13.07,31h-9.13L293,124.75H281.2L279,130.24h-9Zm7.46,18.85-3.42-8.74-3.47,8.74Z"/></clipPath><clipPath id="clip-path-19" transform="translate(9.58 9.58)"><path class="cls-1" d="M315.37,99.48H329.9c4.7,0,7.94,1.23,10,3.34a9.54,9.54,0,0,1,2.72,7.16v.09a9.73,9.73,0,0,1-6.31,9.45l7.33,10.72H333.8l-6.18-9.32h-3.73v9.32h-8.51Zm14.13,14.76c2.9,0,4.56-1.41,4.56-3.65v-.09c0-2.42-1.75-3.65-4.61-3.65h-5.57v7.38Z"/></clipPath><clipPath id="clip-path-21" transform="translate(9.58 9.58)"><polygon class="cls-1" points="354.9 99.49 379.6 99.49 379.6 106.74 363.32 106.74 363.32 111.39 378.06 111.39 378.06 118.11 363.32 118.11 363.32 122.99 379.81 122.99 379.81 130.24 354.9 130.24 354.9 99.49"/></clipPath><clipPath id="clip-path-23" transform="translate(9.58 9.58)"><rect class="cls-2" y="98.87" width="32.77" height="31.99"/></clipPath><clipPath id="clip-path-25" transform="translate(9.58 9.58)"><rect class="cls-2" y="97.75" width="34.5" height="34.5"/></clipPath><clipPath id="clip-path-26" transform="translate(9.58 9.58)"><path class="cls-1" d="M23.61,118.56a7.52,7.52,0,0,1-7,4.61c-4.65,0-7.85-3.87-7.85-8.31v-.09c0-4.44,3.12-8.22,7.77-8.22a7.71,7.71,0,0,1,7.3,5.1h9c-1.44-7.32-7.86-12.79-16.19-12.79C7.1,98.87,0,106,0,114.86V115c0,8.83,7,15.91,16.49,15.91a16.18,16.18,0,0,0,16.11-12.3Z"/></clipPath></defs><title>sept_logo2</title><polygon class="cls-3" points="351.7 44.95 355.28 46.66 358.63 52.49 381.07 70.9 381.07 88.74 381.07 94.04 263.67 94.27 261.95 64.57 351.7 44.95"/><g class="cls-4"><g class="cls-5"><rect class="cls-6" x="198.06" width="163.23" height="103.85"/></g></g><g class="cls-7"><g class="cls-5"><rect class="cls-8" x="330.14" y="36.78" width="74.05" height="67.07"/></g></g><g class="cls-9"><g class="cls-5"><rect class="cls-10" x="42.25" y="99.49" width="42.55" height="49.92"/></g></g><g class="cls-11"><g class="cls-5"><rect class="cls-10" x="74.44" y="98.87" width="52.24" height="51.15"/></g></g><g class="cls-12"><g class="cls-5"><rect class="cls-10" x="117.94" y="99.48" width="47.77" height="50.5"/></g></g><g class="cls-13"><g class="cls-5"><rect class="cls-10" x="159.56" y="99.49" width="48.34" height="49.92"/></g></g><g class="cls-14"><g class="cls-5"><rect class="cls-10" x="201.11" y="99.49" width="43.73" height="49.92"/></g></g><g class="cls-15"><g class="cls-5"><rect class="cls-10" x="237.51" y="99.49" width="42.55" height="49.92"/></g></g><g class="cls-16"><g class="cls-5"><rect class="cls-10" x="270.06" y="99.27" width="53.52" height="50.14"/></g></g><g class="cls-17"><g class="cls-5"><rect class="cls-10" x="315.38" y="99.48" width="47.42" height="49.93"/></g></g><g class="cls-18"><g class="cls-5"><rect class="cls-10" x="354.9" y="99.49" width="44.08" height="49.92"/></g></g><g class="cls-19"><g class="cls-5"><g class="cls-20"><g class="cls-21"><g class="cls-22"><g class="cls-21"><rect class="cls-10" y="98.87" width="51.93" height="51.15"/></g></g></g></g></g></g></svg>