<svg xmlns="http://www.w3.org/2000/svg" viewBox="0 0 16 16"><title>-</title><rect x="3.216" y="10.183" width="4.174" height="2.372"/><rect x="3.216" y="6.571" width="4.174" height="2.372"/><rect x="8.61" y="10.183" width="4.174" height="2.372"/><rect x="8.61" y="6.571" width="4.174" height="2.372"/><path d="M14.23,2.554h-.872v-1.3h-2.32v1.3H5.223v-1.3H2.9v1.3H1.77a.919.919,0,0,0-.919.919V13.828a.919.919,0,0,0,.919.918H14.23a.919.919,0,0,0,.919-.918V3.473A.919.919,0,0,0,14.23,2.554Zm0,11.436H1.77a.162.162,0,0,1-.162-.162V5.179H14.392v8.65A.162.162,0,0,1,14.23,13.99Z"/></svg>