<svg xmlns="http://www.w3.org/2000/svg" viewBox="0 0 16 16"><title>-</title><path d="M5.563,5.3v7.385H3.1V5.3ZM5.72,3.024a1.18,1.18,0,0,1-.376.909,1.4,1.4,0,0,1-1.01.365H4.318a1.345,1.345,0,0,1-.984-.365,1.221,1.221,0,0,1-.373-.909,1.2,1.2,0,0,1,.384-.913,1.4,1.4,0,0,1,1-.361,1.365,1.365,0,0,1,.991.361A1.242,1.242,0,0,1,5.72,3.024Zm8.689,5.432v4.233H11.957V8.739a2.157,2.157,0,0,0-.3-1.226,1.06,1.06,0,0,0-.943-.444,1.207,1.207,0,0,0-.786.257,1.584,1.584,0,0,0-.473.637,1.805,1.805,0,0,0-.082.6v4.121H6.92q.015-2.973.015-4.822T6.927,5.661L6.92,5.3H9.372V6.376H9.357a3.256,3.256,0,0,1,.305-.417,3.168,3.168,0,0,1,.421-.388,1.937,1.937,0,0,1,.648-.324,2.953,2.953,0,0,1,.853-.116,2.647,2.647,0,0,1,2.049.846,3.549,3.549,0,0,1,.775,2.478Z"/></svg>